<svg xmlns="http://www.w3.org/2000/svg" aria-hidden="true" style="width:0;height:0;position:absolute;overflow:hidden"><defs><symbol id="arrow-top" viewBox="0 0 32 32"><path d="M3.76 25.143 0 21.664 16 6.858l16 14.806-3.76 3.479L16 13.841 3.76 25.143z"/></symbol><symbol id="arrow-down" viewBox="0 0 32 32"><path d="M3.76 6.857 0 10.336l16 14.806 16-14.806-3.76-3.479L16 18.159 3.76 6.857z"/></symbol><symbol id="book-open" viewBox="0 0 32 32"><path stroke-linecap="round" stroke-linejoin="round" stroke-width="1.778" d="M2.667 4h8A5.332 5.332 0 0 1 16 9.333V28a4.003 4.003 0 0 0-4-4H2.667V4z"/><path stroke-linecap="round" stroke-linejoin="round" stroke-width="1.778" d="M29.333 4h-8A5.334 5.334 0 0 0 16 9.333V28a4.003 4.003 0 0 1 4-4h9.333V4z"/></symbol><symbol id="calendar" viewBox="0 0 32 32"><path d="M23.407 4.444h5.926a1.478 1.478 0 0 1 1.481 1.482V29.63a1.478 1.478 0 0 1-1.481 1.481H2.666a1.482 1.482 0 0 1-1.482-1.481V5.926a1.482 1.482 0 0 1 1.482-1.482h5.926V1.481h2.963v2.963h8.889V1.481h2.963v2.963zm4.445 11.852H4.148v11.852h23.704V16.296zm-7.408-8.889h-8.889v2.963H8.592V7.407H4.148v5.926h23.704V7.407h-4.444v2.963h-2.963V7.407zM7.111 19.259h2.963v2.963H7.111v-2.963zm7.407 0h2.963v2.963h-2.963v-2.963zm7.408 0h2.963v2.963h-2.963v-2.963z"/></symbol><symbol id="heart-empty" viewBox="0 0 32 32"><path stroke-linecap="round" stroke-linejoin="round" stroke-width="2" d="M9.333 4c-3.681 0-6.667 2.955-6.667 6.6 0 2.943 1.167 9.927 12.651 16.987a1.316 1.316 0 0 0 1.366 0c11.484-7.06 12.651-14.044 12.651-16.987 0-3.645-2.985-6.6-6.667-6.6S16 8 16 8s-2.985-4-6.667-4z"/></symbol><symbol id="heart-fill" viewBox="0 0 32 32"><path d="M8.381 2.286C4.174 2.286.762 5.663.762 9.829c0 3.363 1.333 11.345 14.458 19.413a1.501 1.501 0 0 0 1.56 0c13.125-8.069 14.458-16.05 14.458-19.413 0-4.166-3.412-7.543-7.619-7.543S16 6.857 16 6.857s-3.412-4.571-7.619-4.571z"/></symbol><symbol id="heart" viewBox="0 0 32 32"><path stroke-linecap="round" stroke-linejoin="round" stroke-width="1.778" d="M27.787 6.146a7.345 7.345 0 0 0-5.187-2.15 7.33 7.33 0 0 0-5.187 2.15L16 7.559l-1.413-1.413a7.333 7.333 0 0 0-10.374 0 7.333 7.333 0 0 0 0 10.374L16 28.307 27.787 16.52a7.345 7.345 0 0 0 2.15-5.187 7.33 7.33 0 0 0-2.15-5.187z"/></symbol><symbol id="home" viewBox="0 0 32 32"><path stroke-linecap="round" stroke-linejoin="round" stroke-width="1.778" d="m4 12 12-9.333L28 12v14.667a2.668 2.668 0 0 1-2.667 2.667H6.666a2.668 2.668 0 0 1-2.667-2.667V12z"/><path stroke-linecap="round" stroke-linejoin="round" stroke-width="1.778" d="M12 29.333V16h8v13.333"/></symbol><symbol id="menu" viewBox="0 0 32 32"><path stroke-linecap="round" stroke-linejoin="round" stroke-width="2.667" d="M4 16h24M4 8h24M4 24h24"/></symbol><symbol id="moon" viewBox="0 0 32 32"><path fill="none" stroke-linecap="round" stroke-linejoin="round" stroke-width="2.526" d="M29.263 17.164A13.262 13.262 0 0 1 3.111 18.83 13.263 13.263 0 0 1 14.836 2.737a10.318 10.318 0 0 0 1.001 13.426 10.317 10.317 0 0 0 13.426 1.001z"/></symbol><symbol id="search" viewBox="0 0 32 32"><path d="M13.804 25.882c2.784-.001 5.488-.886 7.682-2.515l6.896 6.551 2.218-2.107-6.896-6.551c1.716-2.084 2.649-4.653 2.649-7.299 0-6.573-5.63-11.922-12.549-11.922S1.255 7.387 1.255 13.961c0 6.573 5.63 11.922 12.549 11.922zm0-20.863c5.191 0 9.412 4.01 9.412 8.941s-4.221 8.941-9.412 8.941c-5.191 0-9.412-4.01-9.412-8.941s4.221-8.941 9.412-8.941z"/></symbol><symbol id="sun" viewBox="0 0 32 32"><path fill="none" stroke-linecap="round" stroke-linejoin="round" stroke-width="2.286" d="M16 1.778v2.586m0 23.272v2.586M5.941 5.941l1.836 1.836m16.446 16.446 1.836 1.836M1.778 16h2.586m23.272 0h2.586M5.941 26.059l1.836-1.836M24.223 7.777l1.836-1.836M22.465 16a6.465 6.465 0 1 1-12.93 0 6.465 6.465 0 0 1 12.93 0z"/></symbol><symbol id="icon-location" viewBox="0 0 32 32"><path fill="#fff" style="fill:var(--color1,#fff)" d="M16 2A11.018 11.018 0 0 0 5 13a10.892 10.892 0 0 0 2.216 6.6s.3.395.349.452L16 30l8.439-9.953c.044-.053.345-.447.345-.447l.001-.003A10.89 10.89 0 0 0 27 13 11.018 11.018 0 0 0 16 2zm0 15a4.004 4.004 0 0 1-3.695-2.469A4 4 0 1 1 20 13a4.004 4.004 0 0 1-4 4z"/></symbol><symbol id="x" viewBox="0 0 32 32"><path stroke-linecap="round" stroke-linejoin="round" stroke-width="2.667" d="M24 8 8 24M8 8l16 16"/></symbol><symbol id="arrow-right" fill="none"><path stroke-linecap="round" stroke-linejoin="round" stroke-width="2" d="m1 13 6-6-6-6"/></symbol><symbol id="arrow-done" viewBox="0 0 32 32"><path d="M28.78 6.39c-.277.008-.54.124-.733.323L11.734 23.026l-6.713-6.713a1.065 1.065 0 1 0-1.508 1.507l7.467 7.467a1.066 1.066 0 0 0 1.508 0L29.555 8.22a1.072 1.072 0 0 0 .239-1.18 1.066 1.066 0 0 0-1.013-.65z"/></symbol><symbol id="calendar" viewBox="0 0 32 32"><path d="M23.407 4.444h5.926a1.478 1.478 0 0 1 1.481 1.482V29.63a1.478 1.478 0 0 1-1.481 1.481H2.666a1.482 1.482 0 0 1-1.482-1.481V5.926a1.482 1.482 0 0 1 1.482-1.482h5.926V1.481h2.963v2.963h8.889V1.481h2.963v2.963zm4.445 11.852H4.148v11.852h23.704V16.296zm-7.408-8.889h-8.889v2.963H8.592V7.407H4.148v5.926h23.704V7.407h-4.444v2.963h-2.963V7.407zM7.111 19.259h2.963v2.963H7.111v-2.963zm7.407 0h2.963v2.963h-2.963v-2.963zm7.408 0h2.963v2.963h-2.963v-2.963z"/></symbol><symbol id="calendar-arrow-next" viewBox="0 0 16 32"><path d="M16 16a2.309 2.309 0 0 0-.643-1.567L3.165 1.468c-.36-.375-.784-.579-1.301-.579-1.05 0-1.865.886-1.865 2.027 0 .545.204 1.056.564 1.448L11.533 16 .563 27.636a2.1 2.1 0 0 0-.564 1.448c0 1.142.815 2.027 1.865 2.027.501 0 .94-.204 1.301-.579L15.357 17.55c.439-.443.642-.954.642-1.55z"/></symbol><symbol id="calendar-arrow-prev" viewBox="0 0 16 32"><path d="M0 16c0 .596.204 1.107.642 1.55l12.192 12.982c.345.375.784.579 1.301.579 1.034 0 1.865-.886 1.865-2.027 0-.562-.219-1.056-.564-1.448L4.451 16 15.436 4.364c.345-.392.564-.903.564-1.448 0-1.141-.831-2.027-1.865-2.027-.517 0-.956.204-1.301.579L.642 14.433C.203 14.893 0 15.404 0 16z"/></symbol><symbol id="calendar-arrow-down" viewBox="0 0 53 32"><path d="M6.267 0 0 6.089 26.667 32 53.334 6.089 47.067 0l-20.4 19.779L6.267 0z"/></symbol><symbol id="calendar-arrow-up" viewBox="0 0 53 32"><path d="M6.267 32 0 25.911 26.667 0l26.667 25.911L47.067 32l-20.4-19.779L6.267 32z"/></symbol><symbol id="btn-up-icon" viewBox="0 0 33 32"><path d="M28.889 17.666c.432.411.992.613 1.552.605s1.114-.223 1.536-.647l.032-.032a2.108 2.108 0 0 0-.045-2.96C27.282 9.948 22.521 5.314 17.802.659a.411.411 0 0 0-.042-.05c-.432-.414-.997-.615-1.557-.607s-1.117.225-1.538.65l-.069.072C9.941 5.363 5.272 9.989.628 14.636c-.408.409-.618.936-.626 1.47s.186 1.069.586 1.488l.04.04c.419.416.971.631 1.528.639s1.119-.194 1.552-.605L16.246 5.143l12.645 12.525zm-.531 13.732c.43.409.989.607 1.546.599a2.2 2.2 0 0 0 1.536-.647l.032-.032a2.11 2.11 0 0 0-.043-2.96c-4.586-4.584-9.096-9.324-13.626-13.971-.013-.019-.029-.037-.045-.056-.432-.411-.997-.613-1.557-.605s-1.117.225-1.538.65c-4.496 4.642-8.976 9.302-13.467 13.952l-.034.032a2.11 2.11 0 0 0-.037 2.958l.04.04c.419.416.971.631 1.528.639s1.119-.194 1.552-.605l12-12.515 12.114 12.52z"/></symbol></defs></svg>